<svg id="Layer_1" data-name="Layer 1" xmlns="http://www.w3.org/2000/svg" viewBox="0 0 31.09 31"><defs><style>.cls-1{fill:#fff;stroke:#fff;stroke-miterlimit:10;}</style></defs><title>add</title><path class="cls-1" d="M600.5,699.8a5.3,5.3,0,0,0-5.3-5.3H575.8a5.3,5.3,0,0,0-5.3,5.3v19.4a5.3,5.3,0,0,0,5.3,5.3h19.4a5.3,5.3,0,0,0,5.3-5.3V699.8Zm-5.45,12.7H588.5v7.57c0,2-.86,3.48-3,3.48s-3-1.44-3-3.48V712.5h-8.61c-2.09,0-3.48-1.21-3.48-3,0-2.09,1.39-3,3.48-3h8.61v-7.6c0-2,.86-3.48,3-3.48s3,1.44,3,3.48v7.6h6.55c2.09,0,3.48.91,3.48,3S597.14,712.5,595.05,712.5Z" transform="translate(-569.91 -694)"/></svg>