<svg id="Layer_1" data-name="Layer 1" xmlns="http://www.w3.org/2000/svg" viewBox="0 0 151.97 151.97"><defs><style>.cls-1{fill:#b3252a;}.cls-2{fill:#fff;}.cls-3,.cls-4,.cls-5{fill:none;stroke:#fff;stroke-linecap:round;stroke-miterlimit:10;stroke-width:4px;}.cls-4{stroke-dasharray:2.75 6.41 2.75 6.41;}.cls-5{stroke-dasharray:2.75 6.41 2.75 6.41 2.75 6.41;}</style></defs><title>animred</title><circle class="cls-1" cx="75.99" cy="75.99" r="75.99"/><ellipse class="cls-2" cx="115.58" cy="52.26" rx="17.76" ry="16.71"/><path class="cls-3" d="M530.2,408.4a5.76,5.76,0,0,1,1.37.6" transform="translate(-506.28 -356.14)"/><path class="cls-4" d="M535.17,414.15c1.42,4,1.94,9.51,2.81,14.82" transform="translate(-506.28 -356.14)"/><path class="cls-5" d="M538.55,432.13c0.86,4.23,2.12,8.12,4.46,10.75,0,0,7.36,12.52,8.24,15.94,5.22,20.32,7.39,22.2,14.54,28.37,5,4.32,12.43-23.61,16.48-31.16,5.62-10.48,1.27.86,5.23-12.44,2.2-7.4,8-12.76,12.79-16.43" transform="translate(-506.28 -356.14)"/><path class="cls-3" d="M602.88,425.28l1.23-.86" transform="translate(-506.28 -356.14)"/><path class="cls-1" d="M633.78,412.8c0.56,1.81-2.9,4.5-7.73,6s-9.21,1.24-9.77-.58,2.21,0.38,8.84-1.93C632.78,413.6,633.21,411,633.78,412.8Z" transform="translate(-506.28 -356.14)"/></svg>