<svg id="Layer_1" data-name="Layer 1" xmlns="http://www.w3.org/2000/svg" viewBox="0 0 151.97 151.97"><defs><style>.cls-1{fill:#3a4d81;}.cls-2{fill:none;stroke:#fff;stroke-linecap:round;stroke-miterlimit:10;stroke-width:12px;}.cls-3{fill:#fff;}</style></defs><title>audioblue</title><circle class="cls-1" cx="75.99" cy="75.99" r="75.99"/><path class="cls-2" d="M240.88,411.38a32,32,0,0,1-.63,53.55" transform="translate(-179.02 -358.74)"/><path class="cls-2" d="M261.8,401.92a39.3,39.3,0,0,1,19.78,31.2c0.83,10.81-3.58,25.38-15.53,34.41" transform="translate(-179.02 -358.74)"/><path class="cls-2" d="M282.76,387.68a55,55,0,0,1-1.07,91.9" transform="translate(-179.02 -358.74)"/><path class="cls-3" d="M234.76,437.31c0,7.62-7.69,13.8-17.17,13.8s-17.17-6.18-17.17-13.8,7.69,3.53,17.17,3.53S234.76,429.69,234.76,437.31Z" transform="translate(-179.02 -358.74)"/></svg>