<svg id="Layer_1" data-name="Layer 1" xmlns="http://www.w3.org/2000/svg" viewBox="0 0 151.97 151.97"><defs><style>.cls-1{fill:#8867ac;}.cls-2{fill:#fff;}</style></defs><title>bookpur</title><circle class="cls-1" cx="75.99" cy="75.99" r="75.99"/><path class="cls-2" d="M98.38,482.41l44.51-60.31a3,3,0,0,0-1.22-4.47l-56.2-24s-4.3-2.29-5.73,0S35.88,452.52,37.31,456c1.25,3,45.31,22.56,56.68,27.56A3.63,3.63,0,0,0,98.38,482.41Z" transform="translate(-14.72 -367.44)"/><path class="cls-1" d="M88.48,455.21l-4.78-6.44a3.83,3.83,0,0,0-3.21-1.54l-8,.29a3.83,3.83,0,0,1-3.26-6l4.65-6.54a3.83,3.83,0,0,0,.48-3.53l-2.75-7.54a3.83,3.83,0,0,1,4.74-5L84,421.3a3.83,3.83,0,0,0,3.5-.64l6.32-4.95a3.83,3.83,0,0,1,6.19,3l0.08,8a3.83,3.83,0,0,0,1.69,3.13l6.66,4.48a3.83,3.83,0,0,1-.92,6.8l-7.6,2.56a3.83,3.83,0,0,0-2.46,2.58L95.23,454A3.83,3.83,0,0,1,88.48,455.21Z" transform="translate(-14.72 -367.44)"/></svg>