<svg id="Layer_1" data-name="Layer 1" xmlns="http://www.w3.org/2000/svg" viewBox="0 0 132.1 132.1"><defs><style>.cls-1{fill:#91bd49;}.cls-2{fill:#fff;}</style></defs><title>greeny</title><circle class="cls-1" cx="66.05" cy="66.05" r="66.05"/><path class="cls-2" d="M895.45,268.61L867.37,222.9c-1.47-2.35-2.06-3.82-2.06-5.44,0-3.23,2.65-5.29,5.88-5.29,2.35,0,4.56.88,6.47,4.12l24.26,39.54,24.25-39.54c1.91-3.23,4.12-4.12,6.47-4.12,3.23,0,5.88,2.06,5.88,5.29,0,1.62-.59,3.09-2.06,5.44l-28.08,45.72v43.07c0,4.26-2.5,6.91-6.47,6.91s-6.47-2.65-6.47-6.91V268.61Z" transform="translate(-833.87 -195.55)"/></svg>