<svg id="Layer_1" data-name="Layer 1" xmlns="http://www.w3.org/2000/svg" viewBox="0 0 151.97 151.97"><defs><style>.cls-1{fill:#5aacc5;}.cls-2{fill:#fff;}.cls-3{fill:none;stroke:#b3252a;stroke-linecap:round;stroke-linejoin:round;stroke-width:2px;}</style></defs><title>quizblue</title><circle class="cls-1" cx="75.99" cy="75.99" r="75.99"/><path class="cls-2" d="M771.87,396.8c0,11.05-9.53,20-21.29,20s-21.29-9-21.29-20,9.53-20,21.29-20a22.21,22.21,0,0,1,11.05,2.9A19.78,19.78,0,0,1,771.87,396.8Z" transform="translate(-674.61 -356.37)"/><path class="cls-2" d="M757.47,380.72c-0.06,1,6.3,5.24,8.93,6.92a1.67,1.67,0,0,0,2.07-.21l4.82-4.63a1.68,1.68,0,0,1,2.31,0l2.92,2.74a0.85,0.85,0,0,0,1.36-1l-4.31-9.9" transform="translate(-674.61 -356.37)"/><path class="cls-2" d="M738.71,381.24l-14.78-7.62a2.08,2.08,0,0,0-2.63.62L715.61,382a0.19,0.19,0,0,0,.22.29l5.69-1.94a2.08,2.08,0,0,1,2.3.68l7.2,9.14a2.08,2.08,0,0,0,3.19.09l5.1-5.78A2.08,2.08,0,0,0,738.71,381.24Z" transform="translate(-674.61 -356.37)"/><rect class="cls-2" x="43.49" y="72.48" width="19.26" height="19.26" rx="2.37" ry="2.37"/><rect class="cls-2" x="43.49" y="102.68" width="19.26" height="19.26" rx="2.28" ry="2.28"/><path class="cls-2" d="M754.46,443a1.59,1.59,0,0,1-1.59,1.66,1.65,1.65,0,0,1-1.49-1,3.18,3.18,0,0,1-2.74,1.23c-2.78,0-4.93-2.55-4.93-5.76s2.15-5.76,4.93-5.76a3.73,3.73,0,0,1,2.64.9V430.5a1.6,1.6,0,1,1,3.19,0V443Zm-7.56-3.9c0,1.47.78,2.7,2.19,2.7s2.19-1.23,2.19-2.7-0.78-2.7-2.19-2.7S746.9,437.67,746.9,439.14Z" transform="translate(-674.61 -356.37)"/><path class="cls-2" d="M767,439.14c0,3.21-2.15,5.76-5.38,5.76s-5.37-2.55-5.37-5.76,2.15-5.76,5.37-5.76S767,435.93,767,439.14Zm-7.56,0c0,1.47.78,2.7,2.19,2.7s2.19-1.23,2.19-2.7-0.78-2.7-2.19-2.7S759.48,437.67,759.48,439.14Z" transform="translate(-674.61 -356.37)"/><path class="cls-2" d="M779.26,443.51c0,4.07-2.66,5.6-5.78,5.6-1.66,0-4.76-.63-4.76-2.37a1.47,1.47,0,0,1,1.33-1.39c0.92,0,1.51.94,3.37,0.94s2.66-1,2.66-2.82h0a3.36,3.36,0,0,1-2.9,1.23c-3.09,0-4.62-2.68-4.62-5.56,0-3.21,2.15-5.76,4.93-5.76a3.18,3.18,0,0,1,2.74,1.23,1.65,1.65,0,0,1,1.49-1,1.59,1.59,0,0,1,1.59,1.66v8.28Zm-5.38-7.07c-1.41,0-2.19,1.23-2.19,2.7s0.78,2.74,2.19,2.74,2.19-1.19,2.19-2.74S775.29,436.44,773.88,436.44Z" transform="translate(-674.61 -356.37)"/><path class="cls-2" d="M754.81,462.15a1.9,1.9,0,1,1-1.9,1.9A1.9,1.9,0,0,1,754.81,462.15Zm-1.59,6.4a1.6,1.6,0,1,1,3.19,0v7.81a1.6,1.6,0,1,1-3.19,0v-7.81Z" transform="translate(-674.61 -356.37)"/><path class="cls-2" d="M760.27,474.48c1,0,1.7.92,3.07,0.92,0.65,0,.9-0.31.9-0.63,0-.65-0.7-0.72-2.47-1.45s-2.51-1.29-2.51-3a3.82,3.82,0,0,1,4.11-3.62c1.29,0,3.68.61,3.68,2.27a1.29,1.29,0,0,1-1.33,1.35c-0.63,0-1.57-.8-2.55-0.8a0.73,0.73,0,0,0-.84.67c0,1.25,5,1,5,4.46,0,2.25-1.9,3.58-4.09,3.58-2,0-4.25-.8-4.25-2.21A1.41,1.41,0,0,1,760.27,474.48Z" transform="translate(-674.61 -356.37)"/><path class="cls-2" d="M769.07,463.81a1.6,1.6,0,1,1,3.19,0v3.68h0a4.81,4.81,0,0,1,2.7-.8c2.21,0,4,1.14,4,3.76v5.91a1.6,1.6,0,1,1-3.19,0v-5a1.76,1.76,0,1,0-3.52,0v5a1.6,1.6,0,1,1-3.19,0V463.81Z" transform="translate(-674.61 -356.37)"/><path class="cls-2" d="M745.76,470h-0.37a1.48,1.48,0,1,1,0-2.94h0.37v-1.43a3.26,3.26,0,0,1,3.31-3.43c1,0,2.13.27,2.13,1.47a1.31,1.31,0,0,1-1.51,1.47c-0.49,0-.74.22-0.74,1V467h0.88a1.48,1.48,0,1,1,0,2.94h-0.88v6.4a1.6,1.6,0,1,1-3.19,0V470Z" transform="translate(-674.61 -356.37)"/><polyline class="cls-3" points="46.84 80.08 53.09 87.06 61.45 66.63"/></svg>