<svg id="Layer_1" data-name="Layer 1" xmlns="http://www.w3.org/2000/svg" viewBox="0 0 132.1 132.1"><defs><style>.cls-1{fill:#b3252a;}.cls-2{fill:#fff;}</style></defs><title>redb</title><circle class="cls-1" cx="66.05" cy="66.05" r="66.05"/><path class="cls-2" d="M582.47,215c0-4,2.06-7.06,6.91-7.06h22.79c18.52,0,28.22,13.08,28.22,25,0,11.47-6,20.29-14.55,22.93v0.29c12.64,1.32,22.64,12.05,22.64,25.87,0,16.46-12.2,30.58-34.25,30.58H589.38c-4.85,0-6.91-3.09-6.91-7.06V215Zm12.94,37.19h14.7c11,0,17.35-7.35,17.35-16.91s-5.44-16.17-16.91-16.17H595.41v33.08Zm0,49.25h18.23c12.64,0,21.9-7.79,21.9-19.4,0-10.73-7.79-19.26-21.32-19.26H595.41v38.66Z" transform="translate(-540.81 -195.55)"/></svg>