<svg id="Layer_1" data-name="Layer 1" xmlns="http://www.w3.org/2000/svg" viewBox="0 0 40.14 38.54"><defs><style>.cls-1{fill:#fff;stroke:#fff;stroke-miterlimit:10;stroke-width:3px;}</style></defs><title>star</title><path class="cls-1" d="M880.09,790l4,8.05a2.28,2.28,0,0,0,1.71,1.25l8.89,1.29a2.28,2.28,0,0,1,1.26,3.88l-6.43,6.27a2.28,2.28,0,0,0-.65,2l1.52,8.85a2.28,2.28,0,0,1-3.3,2.4l-7.95-4.18a2.28,2.28,0,0,0-2.12,0L869,824a2.28,2.28,0,0,1-3.3-2.4l1.52-8.85a2.28,2.28,0,0,0-.65-2l-6.43-6.27a2.28,2.28,0,0,1,1.26-3.88l8.89-1.29A2.28,2.28,0,0,0,872,798l4-8.05A2.28,2.28,0,0,1,880.09,790Z" transform="translate(-857.98 -787.22)"/></svg>