<svg id="Layer_1" data-name="Layer 1" xmlns="http://www.w3.org/2000/svg" viewBox="0 0 151.97 151.97"><defs><style>.cls-1{fill:#e36324;}.cls-2{fill:#ff0;}.cls-3{fill:#3a4d81;}</style></defs><title>textorange</title><circle class="cls-1" cx="75.99" cy="75.99" r="75.99"/><rect class="cls-2" x="79.66" y="48.38" width="64.14" height="46.26" rx="6.1" ry="6.1"/><path class="cls-3" d="M354.34,423.08h-3.48c-2.07,0-3.21-1.15-3.21-2.87s1.15-2.87,3.21-2.87H364c2.07,0,3.21,1.07,3.21,2.87s-1.15,2.87-3.21,2.87h-3.48v18.44a3.11,3.11,0,1,1-6.2,0V423.08Z" transform="translate(-336.8 -360.46)"/><path class="cls-3" d="M368.54,418.22a3,3,0,1,1,6,0v6.89h0.08a9,9,0,0,1,5.05-1.49c4.13,0,7.42,2.14,7.42,7v11.06a3,3,0,1,1-6,0v-9.45c0-2.07-1.22-3.6-3.29-3.6s-3.29,1.53-3.29,3.6v9.45a3,3,0,1,1-6,0V418.22Z" transform="translate(-336.8 -360.46)"/><path class="cls-3" d="M395.44,436.35c0,1.26,1,3.33,4.78,3.33,2.95,0,4.75-1.87,6.12-1.87a2.48,2.48,0,0,1,2.49,2.56c0,2.91-4.86,4.82-9.38,4.82-6.43,0-10.45-4.78-10.45-10.79a10.53,10.53,0,0,1,10.45-10.79c5.89,0,9.68,4.94,9.68,10.14,0,2.1-1,2.6-2.91,2.6H395.44Zm7.73-4.09a3.87,3.87,0,0,0-7.73,0h7.73Z" transform="translate(-336.8 -360.46)"/><path class="cls-3" d="M430.14,423.61c2.68,0,7.08.77,7.08,3.94a2.58,2.58,0,0,1-2.45,2.79c-1.53,0-2-1-4.29-1-3,0-4.44,2.3-4.44,5.05s1.45,5.05,4.09,5.05,3.75-1,4.63-1a2.66,2.66,0,0,1,2.45,2.64c0,3-4.71,4.13-7.08,4.13-6,0-10.06-4.78-10.06-10.79S424.09,423.61,430.14,423.61Z" transform="translate(-336.8 -360.46)"/><path class="cls-3" d="M458.77,441.71a3,3,0,0,1-3,3.1A3.09,3.09,0,0,1,453,442.9a6,6,0,0,1-5.13,2.3c-5.2,0-9.22-4.78-9.22-10.79s4-10.79,9.22-10.79a6,6,0,0,1,5.13,2.3,3.09,3.09,0,0,1,2.79-1.91,3,3,0,0,1,3,3.1v14.62Zm-14.16-7.31c0,2.75,1.45,5.05,4.09,5.05s4.09-2.3,4.09-5.05-1.45-5.05-4.09-5.05S444.61,431.65,444.61,434.4Z" transform="translate(-336.8 -360.46)"/><path class="cls-3" d="M464.64,429.73H464c-1.91,0-3.14-.84-3.14-2.76s1.22-2.75,3.14-2.75h0.69v-3.9a3,3,0,1,1,6,0v3.9h1.65c1.91,0,3.14.84,3.14,2.75s-1.22,2.76-3.14,2.76h-1.65v12a3,3,0,1,1-6,0v-12Z" transform="translate(-336.8 -360.46)"/></svg>